<?xml version="1.0" encoding="utf-8"?>
<!-- Generator: Adobe Illustrator 23.0.5, SVG Export Plug-In . SVG Version: 6.00 Build 0)  -->
<svg version="1.1" id="Layer_1" xmlns="http://www.w3.org/2000/svg" xmlns:xlink="http://www.w3.org/1999/xlink" x="0px" y="0px"
	 viewBox="0 0 300 300" enable-background="new 0 0 300 300" xml:space="preserve">
<g>
	<polygon fill="#FFFFFF" points="287.7,163.6 287.7,154.1 287.7,135 259.1,135 240.1,135 240.1,125.5 287.7,125.5 287.7,106.5 
		240.1,106.5 211.5,106.5 211.5,125.5 211.5,135 211.5,154.1 240.1,154.1 259.1,154.1 259.1,163.6 211.5,163.6 211.5,182.7 
		259.1,182.7 287.7,182.7 	"/>
	<rect x="183" y="106.5" fill="#FFFFFF" width="19" height="76.2"/>
	<polygon fill="#FFFFFF" points="97.2,106.5 97.2,125.5 154.4,125.5 154.4,135 116.3,135 97.2,135 97.2,154.1 97.2,182.7 
		116.3,182.7 116.3,154.4 144.9,182.7 173.4,182.7 143.6,154.1 154.4,154.1 173.4,154.1 173.4,135 173.4,125.5 173.4,106.5 
		154.4,106.5 	"/>
	<path fill="#FFFFFF" d="M40.1,154.1h19v-19h-19V154.1z M44.9,139.8h9.5v9.5h-9.5V139.8z"/>
	<path fill="#FFFFFF" d="M30.6,106.5H13.9c-0.6,0-1.2,0.3-1.7,0.7c-0.4,0.4-0.7,1.1-0.7,1.7v71.4c0,0.6,0.3,1.2,0.7,1.7
		c0.4,0.4,1.1,0.7,1.7,0.7h45.2v-19H30.6V106.5z"/>
	<path fill="#FFFFFF" d="M85.3,106.5H40.1v19h28.6v28.6h19v-45.2c0-0.6-0.3-1.2-0.7-1.7C86.6,106.7,86,106.5,85.3,106.5z"/>
	<rect x="68.7" y="163.6" fill="#FFFFFF" width="19" height="42.9"/>
	<path fill="#FFFFFF" d="M38.1,95.8H2.4c-0.6,0-1.2,0.3-1.7,0.7C0.3,96.9,0,97.5,0,98.1v35.7h4.8v-31c0-0.6,0.3-1.2,0.7-1.7
		c0.4-0.4,1.1-0.7,1.7-0.7h31V95.8z"/>
	<path fill="#FFFFFF" d="M295.2,157.7v31c0,0.6-0.3,1.2-0.7,1.7c-0.4,0.4-1.1,0.7-1.7,0.7h-31v4.8h35.7c0.6,0,1.2-0.3,1.7-0.7
		c0.4-0.4,0.7-1.1,0.7-1.7v-35.7H295.2z"/>
</g>
</svg>
