<?xml version="1.0" encoding="utf-8"?>
<!-- Generator: Adobe Illustrator 23.0.5, SVG Export Plug-In . SVG Version: 6.00 Build 0)  -->
<svg version="1.1" id="Layer_1" xmlns="http://www.w3.org/2000/svg" xmlns:xlink="http://www.w3.org/1999/xlink" x="0px" y="0px"
	 viewBox="0 0 300 300" style="enable-background:new 0 0 300 300;" xml:space="preserve">
<style type="text/css">
	.st0{fill:#FFFFFF;}
</style>
<g>
	<polygon class="st0" points="287.71,163.61 287.71,154.09 287.71,135.04 259.14,135.04 240.09,135.04 240.09,125.51 287.71,125.51 
		287.71,106.47 240.09,106.47 211.52,106.47 211.52,125.51 211.52,135.04 211.52,154.09 240.09,154.09 259.14,154.09 259.14,163.61 
		211.52,163.61 211.52,182.66 259.14,182.66 287.71,182.66 	"/>
	<rect x="182.95" y="106.47" class="st0" width="19.05" height="76.19"/>
	<polygon class="st0" points="97.24,106.47 97.24,125.51 154.38,125.51 154.38,135.04 116.29,135.04 97.24,135.04 97.24,154.09 
		97.24,182.66 116.29,182.66 116.29,154.37 144.86,182.66 173.43,182.66 143.62,154.09 154.38,154.09 173.43,154.09 173.43,135.04 
		173.43,125.51 173.43,106.47 154.38,106.47 	"/>
	<path class="st0" d="M40.09,154.09h19.05v-19.05H40.09V154.09z M44.86,139.8h9.52v9.52h-9.52V139.8z"/>
	<path class="st0" d="M30.57,106.47H13.9c-0.63,0-1.24,0.25-1.68,0.7c-0.45,0.45-0.7,1.05-0.7,1.68v71.43c0,0.63,0.25,1.24,0.7,1.68
		c0.45,0.45,1.05,0.7,1.68,0.7h45.24v-19.05H30.57V106.47z"/>
	<path class="st0" d="M85.33,106.47H40.09v19.05h28.57v28.57h19.05v-45.24c0-0.63-0.25-1.24-0.7-1.68
		C86.57,106.72,85.96,106.47,85.33,106.47z"/>
	<rect x="68.67" y="163.61" class="st0" width="19.05" height="42.86"/>
	<path class="st0" d="M38.1,95.75H2.38c-0.63,0-1.24,0.25-1.68,0.7C0.25,96.9,0,97.5,0,98.13v35.71h4.76V102.9
		c0-0.63,0.25-1.24,0.7-1.68c0.45-0.45,1.05-0.7,1.68-0.7H38.1V95.75z"/>
	<path class="st0" d="M295.24,157.66v30.95c0,0.63-0.25,1.24-0.7,1.68c-0.45,0.45-1.05,0.7-1.68,0.7H261.9v4.76h35.71
		c0.63,0,1.24-0.25,1.68-0.7c0.45-0.45,0.7-1.05,0.7-1.68v-35.71H295.24z"/>
</g>
</svg>
